<mxfile host="app.diagrams.net" modified="2024-06-13T21:28:51.289Z" agent="Mozilla/5.0 (Windows NT 10.0; Win64; x64) AppleWebKit/537.36 (KHTML, like Gecko) Chrome/125.0.0.0 Safari/537.36 Edg/125.0.0.0" etag="mmsgdH-JAufQJ4iWX-lv" version="24.5.4" type="github">
  <diagram id="Y6C-DZbgu6sACpTOpm93" name="Page-1">
    <mxGraphModel dx="1426" dy="759" grid="1" gridSize="10" guides="1" tooltips="1" connect="1" arrows="1" fold="1" page="1" pageScale="1" pageWidth="850" pageHeight="1100" math="0" shadow="0">
      <root>
        <mxCell id="0" />
        <mxCell id="1" parent="0" />
        <mxCell id="nqjFrgvMu1BZjGVMFxI2-6" value="&lt;div style=&quot;font-family: Consolas, &amp;quot;Courier New&amp;quot;, monospace; font-size: 14px; line-height: 19px;&quot;&gt;&lt;span style=&quot;&quot;&gt;Connection&lt;/span&gt;&lt;/div&gt;" style="rounded=1;whiteSpace=wrap;html=1;fillColor=#CC6600;fontColor=#ffffff;labelBackgroundColor=none;labelBorderColor=none;textShadow=0;" parent="1" vertex="1">
          <mxGeometry x="609" y="160" width="130" height="40" as="geometry" />
        </mxCell>
        <mxCell id="nqjFrgvMu1BZjGVMFxI2-7" value="&lt;div style=&quot;font-family: Consolas, &amp;quot;Courier New&amp;quot;, monospace; font-size: 14px; line-height: 19px;&quot;&gt;&lt;span style=&quot;&quot;&gt;SupersetCursor&lt;/span&gt;&lt;/div&gt;" style="rounded=1;whiteSpace=wrap;html=1;fillColor=#0050ef;fontColor=#ffffff;labelBackgroundColor=none;strokeColor=#3333FF;" parent="1" vertex="1">
          <mxGeometry x="295.25" y="300" width="115" height="30" as="geometry" />
        </mxCell>
        <mxCell id="nqjFrgvMu1BZjGVMFxI2-8" value="&lt;div style=&quot;font-family: Consolas, &amp;quot;Courier New&amp;quot;, monospace; font-size: 14px; line-height: 19px;&quot;&gt;&lt;span style=&quot;&quot;&gt;SupersetResultSet&lt;/span&gt;&lt;/div&gt;" style="rounded=1;whiteSpace=wrap;html=1;fillColor=#0050ef;fontColor=#ffffff;labelBackgroundColor=none;strokeColor=#3333FF;" parent="1" vertex="1">
          <mxGeometry x="282.75" y="370" width="140" height="40" as="geometry" />
        </mxCell>
        <mxCell id="nqjFrgvMu1BZjGVMFxI2-11" value="&lt;div style=&quot;font-family: Consolas, &amp;quot;Courier New&amp;quot;, monospace; font-size: 14px; line-height: 19px;&quot;&gt;&lt;div style=&quot;line-height: 19px;&quot;&gt;&lt;span style=&quot;&quot;&gt;SupersetStatementExecutor&lt;/span&gt;&lt;/div&gt;&lt;/div&gt;" style="rounded=1;whiteSpace=wrap;html=1;fillColor=#0050ef;fontColor=#ffffff;labelBackgroundColor=none;strokeColor=#3333FF;" parent="1" vertex="1">
          <mxGeometry x="249" y="460" width="207.5" height="40" as="geometry" />
        </mxCell>
        <mxCell id="nqjFrgvMu1BZjGVMFxI2-12" value="&lt;div style=&quot;font-family: Consolas, &amp;quot;Courier New&amp;quot;, monospace; font-size: 14px; line-height: 19px;&quot;&gt;&lt;div style=&quot;line-height: 19px;&quot;&gt;&lt;span style=&quot;&quot;&gt;Cursor&lt;/span&gt;&lt;/div&gt;&lt;/div&gt;" style="rounded=1;whiteSpace=wrap;html=1;fillColor=#CC6600;fontColor=#ffffff;labelBackgroundColor=none;" parent="1" vertex="1">
          <mxGeometry x="921.5" y="300" width="115" height="30" as="geometry" />
        </mxCell>
        <mxCell id="nqjFrgvMu1BZjGVMFxI2-13" value="&lt;div style=&quot;font-family: Consolas, &amp;quot;Courier New&amp;quot;, monospace; font-size: 14px; line-height: 19px;&quot;&gt;&lt;div style=&quot;line-height: 19px;&quot;&gt;&lt;span style=&quot;&quot;&gt;DynamoDBResultSet&lt;/span&gt;&lt;/div&gt;&lt;/div&gt;" style="rounded=1;whiteSpace=wrap;html=1;fillColor=#CC6600;fontColor=#FFFFFF;labelBackgroundColor=none;" parent="1" vertex="1">
          <mxGeometry x="909" y="370" width="140" height="40" as="geometry" />
        </mxCell>
        <mxCell id="nqjFrgvMu1BZjGVMFxI2-14" value="&lt;div style=&quot;font-family: Consolas, &amp;quot;Courier New&amp;quot;, monospace; font-size: 14px; line-height: 19px;&quot;&gt;&lt;div style=&quot;line-height: 19px;&quot;&gt;&lt;span style=&quot;&quot;&gt;Executor&lt;/span&gt;&lt;/div&gt;&lt;/div&gt;" style="rounded=1;whiteSpace=wrap;html=1;fillColor=#CC6600;fontColor=#FFFFFF;labelBackgroundColor=none;" parent="1" vertex="1">
          <mxGeometry x="914" y="460" width="130" height="40" as="geometry" />
        </mxCell>
        <mxCell id="nqjFrgvMu1BZjGVMFxI2-16" value="&lt;div style=&quot;font-family: Consolas, &amp;quot;Courier New&amp;quot;, monospace; font-size: 14px; line-height: 19px;&quot;&gt;&lt;div style=&quot;line-height: 19px;&quot;&gt;&lt;div style=&quot;line-height: 19px;&quot;&gt;&lt;span style=&quot;&quot;&gt;DmlStatementExecutor&lt;/span&gt;&lt;/div&gt;&lt;/div&gt;&lt;/div&gt;" style="rounded=1;whiteSpace=wrap;html=1;fillColor=#CC6600;fontColor=#FFFFFF;labelBackgroundColor=none;" parent="1" vertex="1">
          <mxGeometry x="819" y="550" width="190" height="40" as="geometry" />
        </mxCell>
        <mxCell id="nqjFrgvMu1BZjGVMFxI2-17" value="&lt;div style=&quot;font-family: Consolas, &amp;quot;Courier New&amp;quot;, monospace; font-size: 14px; line-height: 19px;&quot;&gt;&lt;div style=&quot;line-height: 19px;&quot;&gt;&lt;div style=&quot;line-height: 19px;&quot;&gt;&lt;div style=&quot;line-height: 19px;&quot;&gt;&lt;span style=&quot;&quot;&gt;DmlTransactionExecutor&lt;/span&gt;&lt;/div&gt;&lt;/div&gt;&lt;/div&gt;&lt;/div&gt;" style="rounded=1;whiteSpace=wrap;html=1;fillColor=#CC6600;fontColor=#FFFFFF;labelBackgroundColor=none;" parent="1" vertex="1">
          <mxGeometry x="739" y="750" width="190" height="40" as="geometry" />
        </mxCell>
        <mxCell id="nqjFrgvMu1BZjGVMFxI2-18" value="&lt;div style=&quot;font-family: Consolas, &amp;quot;Courier New&amp;quot;, monospace; font-size: 14px; line-height: 19px;&quot;&gt;&lt;div style=&quot;line-height: 19px;&quot;&gt;&lt;div style=&quot;line-height: 19px;&quot;&gt;&lt;div style=&quot;line-height: 19px;&quot;&gt;&lt;div style=&quot;line-height: 19px;&quot;&gt;&lt;span style=&quot;&quot;&gt;DmlBatchExecutor&lt;/span&gt;&lt;/div&gt;&lt;/div&gt;&lt;/div&gt;&lt;/div&gt;&lt;/div&gt;" style="rounded=1;whiteSpace=wrap;html=1;fillColor=#CC6600;fontColor=#FFFFFF;labelBackgroundColor=none;" parent="1" vertex="1">
          <mxGeometry x="739" y="650" width="190" height="40" as="geometry" />
        </mxCell>
        <mxCell id="nqjFrgvMu1BZjGVMFxI2-19" value="&lt;div style=&quot;font-family: Consolas, &amp;quot;Courier New&amp;quot;, monospace; font-size: 14px; line-height: 19px;&quot;&gt;&lt;div style=&quot;line-height: 19px;&quot;&gt;&lt;div style=&quot;line-height: 19px;&quot;&gt;&lt;div style=&quot;line-height: 19px;&quot;&gt;&lt;div style=&quot;line-height: 19px;&quot;&gt;&lt;span style=&quot;&quot;&gt;DdlExecutor&lt;/span&gt;&lt;/div&gt;&lt;/div&gt;&lt;/div&gt;&lt;/div&gt;&lt;/div&gt;" style="rounded=1;whiteSpace=wrap;html=1;fillColor=#CC6600;fontColor=#FFFFFF;labelBackgroundColor=none;" parent="1" vertex="1">
          <mxGeometry x="1009" y="660" width="190" height="40" as="geometry" />
        </mxCell>
        <mxCell id="nqjFrgvMu1BZjGVMFxI2-21" value="&lt;div style=&quot;line-height: 19px;&quot;&gt;&lt;div style=&quot;line-height: 19px;&quot;&gt;&lt;div style=&quot;line-height: 19px;&quot;&gt;&lt;div style=&quot;line-height: 19px;&quot;&gt;&lt;div style=&quot;line-height: 19px;&quot;&gt;&lt;div style=&quot;line-height: 19px;&quot;&gt;&lt;font face=&quot;Consolas, Courier New, monospace&quot;&gt;&lt;span style=&quot;font-size: 14px;&quot;&gt;UtilListTablesExecutor&lt;/span&gt;&lt;/font&gt;&lt;br&gt;&lt;/div&gt;&lt;/div&gt;&lt;/div&gt;&lt;/div&gt;&lt;/div&gt;&lt;/div&gt;" style="rounded=1;whiteSpace=wrap;html=1;fillColor=#CC6600;fontColor=#FFFFFF;labelBackgroundColor=none;" parent="1" vertex="1">
          <mxGeometry x="1169" y="397" width="230" height="40" as="geometry" />
        </mxCell>
        <mxCell id="nqjFrgvMu1BZjGVMFxI2-22" value="" style="curved=1;endArrow=classic;html=1;rounded=0;exitX=0;exitY=0.5;exitDx=0;exitDy=0;entryX=0.5;entryY=0;entryDx=0;entryDy=0;dashed=1;" parent="1" source="nqjFrgvMu1BZjGVMFxI2-6" target="nqjFrgvMu1BZjGVMFxI2-7" edge="1">
          <mxGeometry width="50" height="50" relative="1" as="geometry">
            <mxPoint x="559" y="390" as="sourcePoint" />
            <mxPoint x="609" y="340" as="targetPoint" />
            <Array as="points">
              <mxPoint x="529" y="180" />
              <mxPoint x="429" y="210" />
            </Array>
          </mxGeometry>
        </mxCell>
        <mxCell id="nqjFrgvMu1BZjGVMFxI2-24" value="" style="endArrow=classic;html=1;rounded=0;exitX=0.5;exitY=1;exitDx=0;exitDy=0;dashed=1;" parent="1" source="nqjFrgvMu1BZjGVMFxI2-7" target="nqjFrgvMu1BZjGVMFxI2-8" edge="1">
          <mxGeometry width="50" height="50" relative="1" as="geometry">
            <mxPoint x="505.25" y="480" as="sourcePoint" />
            <mxPoint x="555.25" y="430" as="targetPoint" />
          </mxGeometry>
        </mxCell>
        <mxCell id="nqjFrgvMu1BZjGVMFxI2-25" value="" style="endArrow=classic;html=1;rounded=0;entryX=0.5;entryY=0;entryDx=0;entryDy=0;exitX=0.5;exitY=1;exitDx=0;exitDy=0;dashed=1;" parent="1" source="nqjFrgvMu1BZjGVMFxI2-8" target="nqjFrgvMu1BZjGVMFxI2-11" edge="1">
          <mxGeometry width="50" height="50" relative="1" as="geometry">
            <mxPoint x="465.25" y="450" as="sourcePoint" />
            <mxPoint x="515.25" y="400" as="targetPoint" />
          </mxGeometry>
        </mxCell>
        <mxCell id="nqjFrgvMu1BZjGVMFxI2-26" value="" style="curved=1;endArrow=classic;html=1;rounded=0;exitX=1;exitY=0.5;exitDx=0;exitDy=0;entryX=0.5;entryY=0;entryDx=0;entryDy=0;dashed=1;" parent="1" source="nqjFrgvMu1BZjGVMFxI2-6" target="nqjFrgvMu1BZjGVMFxI2-12" edge="1">
          <mxGeometry width="50" height="50" relative="1" as="geometry">
            <mxPoint x="549" y="150" as="sourcePoint" />
            <mxPoint x="416.5" y="220" as="targetPoint" />
            <Array as="points">
              <mxPoint x="799" y="180" />
              <mxPoint x="889" y="230" />
            </Array>
          </mxGeometry>
        </mxCell>
        <mxCell id="nqjFrgvMu1BZjGVMFxI2-27" value="" style="endArrow=classic;html=1;rounded=0;exitX=0.5;exitY=1;exitDx=0;exitDy=0;dashed=1;" parent="1" source="nqjFrgvMu1BZjGVMFxI2-12" target="nqjFrgvMu1BZjGVMFxI2-13" edge="1">
          <mxGeometry width="50" height="50" relative="1" as="geometry">
            <mxPoint x="984" y="320" as="sourcePoint" />
            <mxPoint x="591.5" y="380" as="targetPoint" />
          </mxGeometry>
        </mxCell>
        <mxCell id="nqjFrgvMu1BZjGVMFxI2-29" value="" style="endArrow=classic;html=1;rounded=0;entryX=0.5;entryY=0;entryDx=0;entryDy=0;exitX=0.5;exitY=1;exitDx=0;exitDy=0;dashed=1;" parent="1" source="nqjFrgvMu1BZjGVMFxI2-13" target="nqjFrgvMu1BZjGVMFxI2-14" edge="1">
          <mxGeometry width="50" height="50" relative="1" as="geometry">
            <mxPoint x="734" y="480" as="sourcePoint" />
            <mxPoint x="784" y="430" as="targetPoint" />
          </mxGeometry>
        </mxCell>
        <mxCell id="nqjFrgvMu1BZjGVMFxI2-35" value="Connector=Superset" style="text;html=1;strokeColor=none;fillColor=none;align=center;verticalAlign=middle;whiteSpace=wrap;rounded=0;fontStyle=1" parent="1" vertex="1">
          <mxGeometry x="429" y="160" width="60" height="30" as="geometry" />
        </mxCell>
        <mxCell id="nqjFrgvMu1BZjGVMFxI2-36" value="DynamoDB Driver" style="text;html=1;strokeColor=none;fillColor=none;align=center;verticalAlign=middle;whiteSpace=wrap;rounded=0;fontStyle=1" parent="1" vertex="1">
          <mxGeometry x="829" y="170" width="110" height="30" as="geometry" />
        </mxCell>
        <mxCell id="nqjFrgvMu1BZjGVMFxI2-49" value="Extends" style="endArrow=block;endSize=16;endFill=0;html=1;rounded=0;exitX=1;exitY=0.5;exitDx=0;exitDy=0;entryX=0;entryY=0.5;entryDx=0;entryDy=0;" parent="1" source="nqjFrgvMu1BZjGVMFxI2-7" target="nqjFrgvMu1BZjGVMFxI2-12" edge="1">
          <mxGeometry width="160" relative="1" as="geometry">
            <mxPoint x="289" y="520" as="sourcePoint" />
            <mxPoint x="829" y="350" as="targetPoint" />
          </mxGeometry>
        </mxCell>
        <mxCell id="nqjFrgvMu1BZjGVMFxI2-50" value="Extends" style="endArrow=block;endSize=16;endFill=0;html=1;rounded=0;exitX=1;exitY=0.5;exitDx=0;exitDy=0;entryX=0;entryY=0.5;entryDx=0;entryDy=0;" parent="1" source="nqjFrgvMu1BZjGVMFxI2-8" target="nqjFrgvMu1BZjGVMFxI2-13" edge="1">
          <mxGeometry width="160" relative="1" as="geometry">
            <mxPoint x="709" y="310" as="sourcePoint" />
            <mxPoint x="809" y="360" as="targetPoint" />
          </mxGeometry>
        </mxCell>
        <mxCell id="nqjFrgvMu1BZjGVMFxI2-51" value="Extends" style="endArrow=block;endSize=16;endFill=0;html=1;rounded=0;exitX=0.5;exitY=1;exitDx=0;exitDy=0;entryX=0;entryY=0.5;entryDx=0;entryDy=0;" parent="1" source="nqjFrgvMu1BZjGVMFxI2-11" target="nqjFrgvMu1BZjGVMFxI2-16" edge="1">
          <mxGeometry width="160" relative="1" as="geometry">
            <mxPoint x="516.5" y="479.40999999999997" as="sourcePoint" />
            <mxPoint x="519" y="610" as="targetPoint" />
          </mxGeometry>
        </mxCell>
        <mxCell id="nqjFrgvMu1BZjGVMFxI2-52" value="&lt;div style=&quot;font-family: Consolas, &amp;quot;Courier New&amp;quot;, monospace; font-size: 14px; line-height: 19px;&quot;&gt;&lt;span style=&quot;&quot;&gt;Statement&lt;/span&gt;&lt;/div&gt;" style="rounded=1;whiteSpace=wrap;html=1;fillColor=#CC6600;fontColor=#FFFFFF;labelBackgroundColor=none;" parent="1" vertex="1">
          <mxGeometry x="609" y="460" width="130" height="40" as="geometry" />
        </mxCell>
        <mxCell id="nqjFrgvMu1BZjGVMFxI2-53" value="" style="endArrow=open;endFill=1;endSize=12;html=1;rounded=0;entryX=0;entryY=0.5;entryDx=0;entryDy=0;" parent="1" source="nqjFrgvMu1BZjGVMFxI2-52" target="nqjFrgvMu1BZjGVMFxI2-14" edge="1">
          <mxGeometry width="160" relative="1" as="geometry">
            <mxPoint x="834" y="479.40999999999997" as="sourcePoint" />
            <mxPoint x="994" y="479.40999999999997" as="targetPoint" />
          </mxGeometry>
        </mxCell>
        <mxCell id="nqjFrgvMu1BZjGVMFxI2-54" value="" style="endArrow=open;endFill=1;endSize=12;html=1;rounded=0;entryX=1;entryY=0.5;entryDx=0;entryDy=0;exitX=0;exitY=0.5;exitDx=0;exitDy=0;" parent="1" source="nqjFrgvMu1BZjGVMFxI2-52" target="nqjFrgvMu1BZjGVMFxI2-11" edge="1">
          <mxGeometry width="160" relative="1" as="geometry">
            <mxPoint x="844" y="490" as="sourcePoint" />
            <mxPoint x="924" y="490" as="targetPoint" />
          </mxGeometry>
        </mxCell>
        <mxCell id="nqjFrgvMu1BZjGVMFxI2-55" value="&lt;div style=&quot;font-family: Consolas, &amp;quot;Courier New&amp;quot;, monospace; font-size: 14px; line-height: 19px;&quot;&gt;&lt;span style=&quot;&quot;&gt;SQLParser&lt;/span&gt;&lt;/div&gt;" style="rounded=1;whiteSpace=wrap;html=1;fillColor=#CC6600;fontColor=#FFFFFF;labelBackgroundColor=none;" parent="1" vertex="1">
          <mxGeometry x="489" y="605" width="130" height="40" as="geometry" />
        </mxCell>
        <mxCell id="nqjFrgvMu1BZjGVMFxI2-58" value="Extends" style="endArrow=block;endSize=16;endFill=0;html=1;rounded=0;exitX=0.5;exitY=0;exitDx=0;exitDy=0;" parent="1" source="nqjFrgvMu1BZjGVMFxI2-16" edge="1">
          <mxGeometry width="160" relative="1" as="geometry">
            <mxPoint x="432.75" y="400" as="sourcePoint" />
            <mxPoint x="979" y="500" as="targetPoint" />
          </mxGeometry>
        </mxCell>
        <mxCell id="nqjFrgvMu1BZjGVMFxI2-59" value="Extends" style="endArrow=block;endSize=16;endFill=0;html=1;rounded=0;exitX=0.5;exitY=0;exitDx=0;exitDy=0;entryX=0.25;entryY=1;entryDx=0;entryDy=0;" parent="1" source="nqjFrgvMu1BZjGVMFxI2-18" target="nqjFrgvMu1BZjGVMFxI2-16" edge="1">
          <mxGeometry width="160" relative="1" as="geometry">
            <mxPoint x="824" y="560" as="sourcePoint" />
            <mxPoint x="956.5" y="510" as="targetPoint" />
          </mxGeometry>
        </mxCell>
        <mxCell id="nqjFrgvMu1BZjGVMFxI2-60" value="Extends" style="endArrow=block;endSize=16;endFill=0;html=1;rounded=0;exitX=0.5;exitY=0;exitDx=0;exitDy=0;entryX=0.5;entryY=1;entryDx=0;entryDy=0;" parent="1" source="nqjFrgvMu1BZjGVMFxI2-17" target="nqjFrgvMu1BZjGVMFxI2-18" edge="1">
          <mxGeometry width="160" relative="1" as="geometry">
            <mxPoint x="734" y="689.9999999999998" as="sourcePoint" />
            <mxPoint x="824" y="600" as="targetPoint" />
          </mxGeometry>
        </mxCell>
        <mxCell id="nqjFrgvMu1BZjGVMFxI2-61" value="&lt;div style=&quot;font-family: Consolas, &amp;quot;Courier New&amp;quot;, monospace; font-size: 14px; line-height: 19px;&quot;&gt;&lt;div style=&quot;line-height: 19px;&quot;&gt;&lt;div style=&quot;line-height: 19px;&quot;&gt;&lt;div style=&quot;line-height: 19px;&quot;&gt;&lt;div style=&quot;line-height: 19px;&quot;&gt;&lt;span style=&quot;&quot;&gt;DdlCreateExecutor&lt;/span&gt;&lt;/div&gt;&lt;/div&gt;&lt;/div&gt;&lt;/div&gt;&lt;/div&gt;" style="rounded=1;whiteSpace=wrap;html=1;fillColor=#CC6600;fontColor=#FFFFFF;labelBackgroundColor=none;" parent="1" vertex="1">
          <mxGeometry x="1299" y="605" width="190" height="40" as="geometry" />
        </mxCell>
        <mxCell id="nqjFrgvMu1BZjGVMFxI2-62" value="Extends" style="endArrow=block;endSize=16;endFill=0;html=1;rounded=0;exitX=0.5;exitY=0;exitDx=0;exitDy=0;entryX=0.5;entryY=1;entryDx=0;entryDy=0;" parent="1" source="nqjFrgvMu1BZjGVMFxI2-19" target="nqjFrgvMu1BZjGVMFxI2-14" edge="1">
          <mxGeometry width="160" relative="1" as="geometry">
            <mxPoint x="824" y="660" as="sourcePoint" />
            <mxPoint x="824" y="600" as="targetPoint" />
          </mxGeometry>
        </mxCell>
        <mxCell id="nqjFrgvMu1BZjGVMFxI2-63" value="Extends" style="endArrow=block;endSize=16;endFill=0;html=1;rounded=0;exitX=0;exitY=0.5;exitDx=0;exitDy=0;entryX=1;entryY=0.5;entryDx=0;entryDy=0;" parent="1" source="nqjFrgvMu1BZjGVMFxI2-61" target="nqjFrgvMu1BZjGVMFxI2-19" edge="1">
          <mxGeometry width="160" relative="1" as="geometry">
            <mxPoint x="814" y="660" as="sourcePoint" />
            <mxPoint x="1339" y="570" as="targetPoint" />
          </mxGeometry>
        </mxCell>
        <mxCell id="nqjFrgvMu1BZjGVMFxI2-64" value="Extends" style="endArrow=block;endSize=16;endFill=0;html=1;rounded=0;exitX=0;exitY=0.5;exitDx=0;exitDy=0;entryX=1;entryY=0.5;entryDx=0;entryDy=0;" parent="1" source="nqjFrgvMu1BZjGVMFxI2-21" target="nqjFrgvMu1BZjGVMFxI2-14" edge="1">
          <mxGeometry width="160" relative="1" as="geometry">
            <mxPoint x="1044" y="560" as="sourcePoint" />
            <mxPoint x="989" y="510" as="targetPoint" />
          </mxGeometry>
        </mxCell>
        <mxCell id="nqjFrgvMu1BZjGVMFxI2-65" value="" style="curved=1;endArrow=classic;html=1;rounded=0;dashed=1;entryX=0.5;entryY=0;entryDx=0;entryDy=0;exitX=0;exitY=0;exitDx=0;exitDy=0;" parent="1" source="nqjFrgvMu1BZjGVMFxI2-11" target="nqjFrgvMu1BZjGVMFxI2-12" edge="1">
          <mxGeometry width="50" height="50" relative="1" as="geometry">
            <mxPoint x="359" y="500" as="sourcePoint" />
            <mxPoint x="819" y="400" as="targetPoint" />
            <Array as="points">
              <mxPoint x="149" y="110" />
              <mxPoint x="619" y="100" />
              <mxPoint x="1089" y="120" />
            </Array>
          </mxGeometry>
        </mxCell>
        <mxCell id="nqjFrgvMu1BZjGVMFxI2-66" value="Create DynamoDB Cursor to fetch data" style="text;html=1;strokeColor=none;fillColor=none;align=center;verticalAlign=middle;whiteSpace=wrap;rounded=0;fontStyle=1" parent="1" vertex="1">
          <mxGeometry x="161" y="270" width="120" height="30" as="geometry" />
        </mxCell>
        <mxCell id="nqjFrgvMu1BZjGVMFxI2-67" value="Query DB&lt;br&gt;(Default In-Memory)" style="shape=cylinder3;whiteSpace=wrap;html=1;boundedLbl=1;backgroundOutline=1;size=15;fillColor=#66B2FF;fontColor=#000000;strokeColor=#006EAF;labelBackgroundColor=none;fontStyle=2;dashed=1;" parent="1" vertex="1">
          <mxGeometry x="219" y="590" width="120" height="70" as="geometry" />
        </mxCell>
        <mxCell id="nqjFrgvMu1BZjGVMFxI2-68" value="" style="curved=1;endArrow=classic;html=1;rounded=0;dashed=1;fontColor=#FFF2CC;entryX=0;entryY=0;entryDx=0;entryDy=22.5;entryPerimeter=0;exitX=0;exitY=0.75;exitDx=0;exitDy=0;" parent="1" source="nqjFrgvMu1BZjGVMFxI2-11" target="nqjFrgvMu1BZjGVMFxI2-67" edge="1">
          <mxGeometry width="50" height="50" relative="1" as="geometry">
            <mxPoint x="169" y="520" as="sourcePoint" />
            <mxPoint x="219" y="470" as="targetPoint" />
            <Array as="points">
              <mxPoint x="159" y="530" />
            </Array>
          </mxGeometry>
        </mxCell>
        <mxCell id="nqjFrgvMu1BZjGVMFxI2-70" value="" style="curved=1;endArrow=classic;html=1;rounded=0;dashed=1;fontColor=#FFF2CC;exitX=1;exitY=0.5;exitDx=0;exitDy=0;exitPerimeter=0;" parent="1" source="nqjFrgvMu1BZjGVMFxI2-67" edge="1">
          <mxGeometry width="50" height="50" relative="1" as="geometry">
            <mxPoint x="259" y="480" as="sourcePoint" />
            <mxPoint x="349" y="500" as="targetPoint" />
            <Array as="points">
              <mxPoint x="419" y="570" />
            </Array>
          </mxGeometry>
        </mxCell>
        <mxCell id="nqjFrgvMu1BZjGVMFxI2-74" value="&lt;div style=&quot;font-family: Consolas, &amp;quot;Courier New&amp;quot;, monospace; font-size: 14px; line-height: 19px;&quot;&gt;&lt;span style=&quot;&quot;&gt;DmlBase&lt;/span&gt;&lt;/div&gt;" style="rounded=1;whiteSpace=wrap;html=1;fillColor=#CC6600;fontColor=#FFFFFF;labelBackgroundColor=none;" parent="1" vertex="1">
          <mxGeometry x="355" y="690" width="90" height="40" as="geometry" />
        </mxCell>
        <mxCell id="nqjFrgvMu1BZjGVMFxI2-75" value="&lt;div style=&quot;font-family: Consolas, &amp;quot;Courier New&amp;quot;, monospace; font-size: 14px; line-height: 19px;&quot;&gt;&lt;div style=&quot;line-height: 19px;&quot;&gt;&lt;span style=&quot;&quot;&gt;DmlSelect&lt;/span&gt;&lt;/div&gt;&lt;/div&gt;" style="rounded=1;whiteSpace=wrap;html=1;fillColor=#CC6600;fontColor=#FFFFFF;labelBackgroundColor=none;" parent="1" vertex="1">
          <mxGeometry x="185" y="690" width="90" height="40" as="geometry" />
        </mxCell>
        <mxCell id="nqjFrgvMu1BZjGVMFxI2-76" value="&lt;div style=&quot;font-family: Consolas, &amp;quot;Courier New&amp;quot;, monospace; font-size: 14px; line-height: 19px;&quot;&gt;&lt;span style=&quot;&quot;&gt;DdlBase&lt;/span&gt;&lt;/div&gt;" style="rounded=1;whiteSpace=wrap;html=1;fillColor=#CC6600;fontColor=#FFFFFF;labelBackgroundColor=none;" parent="1" vertex="1">
          <mxGeometry x="399" y="780" width="90" height="40" as="geometry" />
        </mxCell>
        <mxCell id="nqjFrgvMu1BZjGVMFxI2-77" value="&lt;div style=&quot;font-family: Consolas, &amp;quot;Courier New&amp;quot;, monospace; font-size: 14px; line-height: 19px;&quot;&gt;&lt;div style=&quot;line-height: 19px;&quot;&gt;&lt;span style=&quot;&quot;&gt;DdlCreate&lt;/span&gt;&lt;/div&gt;&lt;/div&gt;" style="rounded=1;whiteSpace=wrap;html=1;fillColor=#CC6600;fontColor=#FFFFFF;labelBackgroundColor=none;" parent="1" vertex="1">
          <mxGeometry x="309" y="870" width="90" height="40" as="geometry" />
        </mxCell>
        <mxCell id="nqjFrgvMu1BZjGVMFxI2-78" value="&lt;div style=&quot;font-family: Consolas, &amp;quot;Courier New&amp;quot;, monospace; font-size: 14px; line-height: 19px;&quot;&gt;&lt;div style=&quot;line-height: 19px;&quot;&gt;&lt;span style=&quot;&quot;&gt;DdlAlter&lt;/span&gt;&lt;br&gt;&lt;/div&gt;&lt;/div&gt;" style="rounded=1;whiteSpace=wrap;html=1;fillColor=#CC6600;fontColor=#FFFFFF;labelBackgroundColor=none;" parent="1" vertex="1">
          <mxGeometry x="399" y="910" width="90" height="40" as="geometry" />
        </mxCell>
        <mxCell id="nqjFrgvMu1BZjGVMFxI2-79" value="&lt;div style=&quot;font-family: Consolas, &amp;quot;Courier New&amp;quot;, monospace; font-size: 14px; line-height: 19px;&quot;&gt;&lt;div style=&quot;line-height: 19px;&quot;&gt;&lt;span style=&quot;&quot;&gt;DdlDrop&lt;/span&gt;&lt;br&gt;&lt;/div&gt;&lt;/div&gt;" style="rounded=1;whiteSpace=wrap;html=1;fillColor=#CC6600;fontColor=#FFFFFF;labelBackgroundColor=none;" parent="1" vertex="1">
          <mxGeometry x="489" y="870" width="90" height="40" as="geometry" />
        </mxCell>
        <mxCell id="nqjFrgvMu1BZjGVMFxI2-80" value="&lt;div style=&quot;line-height: 19px;&quot;&gt;&lt;div style=&quot;line-height: 19px;&quot;&gt;&lt;font face=&quot;Consolas, Courier New, monospace&quot;&gt;&lt;span style=&quot;font-size: 14px;&quot;&gt;UtilBase&lt;/span&gt;&lt;/font&gt;&lt;br&gt;&lt;/div&gt;&lt;/div&gt;" style="rounded=1;whiteSpace=wrap;html=1;fillColor=#CC6600;fontColor=#FFFFFF;labelBackgroundColor=none;" parent="1" vertex="1">
          <mxGeometry x="629" y="690" width="90" height="40" as="geometry" />
        </mxCell>
        <mxCell id="nqjFrgvMu1BZjGVMFxI2-81" value="Extends" style="endArrow=block;endSize=16;endFill=0;html=1;rounded=0;exitX=1;exitY=0.5;exitDx=0;exitDy=0;entryX=0;entryY=0.5;entryDx=0;entryDy=0;" parent="1" source="nqjFrgvMu1BZjGVMFxI2-75" target="nqjFrgvMu1BZjGVMFxI2-74" edge="1">
          <mxGeometry width="160" relative="1" as="geometry">
            <mxPoint x="864" y="639.9999999999998" as="sourcePoint" />
            <mxPoint x="864" y="580.0000000000002" as="targetPoint" />
          </mxGeometry>
        </mxCell>
        <mxCell id="nqjFrgvMu1BZjGVMFxI2-82" value="Extends" style="endArrow=block;endSize=16;endFill=0;html=1;rounded=0;" parent="1" source="nqjFrgvMu1BZjGVMFxI2-77" target="nqjFrgvMu1BZjGVMFxI2-76" edge="1">
          <mxGeometry width="160" relative="1" as="geometry">
            <mxPoint x="354" y="849.9999999999998" as="sourcePoint" />
            <mxPoint x="354" y="779.9999999999998" as="targetPoint" />
          </mxGeometry>
        </mxCell>
        <mxCell id="nqjFrgvMu1BZjGVMFxI2-83" value="Extends" style="endArrow=block;endSize=16;endFill=0;html=1;rounded=0;exitX=0.5;exitY=0;exitDx=0;exitDy=0;entryX=0.5;entryY=1;entryDx=0;entryDy=0;" parent="1" source="nqjFrgvMu1BZjGVMFxI2-78" target="nqjFrgvMu1BZjGVMFxI2-76" edge="1">
          <mxGeometry width="160" relative="1" as="geometry">
            <mxPoint x="469.7142857142858" y="879.9999999999998" as="sourcePoint" />
            <mxPoint x="519" y="820" as="targetPoint" />
          </mxGeometry>
        </mxCell>
        <mxCell id="nqjFrgvMu1BZjGVMFxI2-85" value="Extends" style="endArrow=block;endSize=16;endFill=0;html=1;rounded=0;" parent="1" source="nqjFrgvMu1BZjGVMFxI2-79" target="nqjFrgvMu1BZjGVMFxI2-76" edge="1">
          <mxGeometry width="160" relative="1" as="geometry">
            <mxPoint x="527.75" y="929.9999999999998" as="sourcePoint" />
            <mxPoint x="529" y="829.9999999999998" as="targetPoint" />
          </mxGeometry>
        </mxCell>
        <mxCell id="nqjFrgvMu1BZjGVMFxI2-86" value="" style="endArrow=diamondThin;endFill=1;endSize=24;html=1;rounded=0;exitX=0.5;exitY=0;exitDx=0;exitDy=0;" parent="1" source="nqjFrgvMu1BZjGVMFxI2-74" target="nqjFrgvMu1BZjGVMFxI2-55" edge="1">
          <mxGeometry width="160" relative="1" as="geometry">
            <mxPoint x="422.75" y="679.9999999999998" as="sourcePoint" />
            <mxPoint x="532.75" y="550" as="targetPoint" />
          </mxGeometry>
        </mxCell>
        <mxCell id="nqjFrgvMu1BZjGVMFxI2-89" value="" style="endArrow=open;endFill=1;endSize=12;html=1;rounded=0;entryX=0.5;entryY=1;entryDx=0;entryDy=0;exitX=0.5;exitY=0;exitDx=0;exitDy=0;" parent="1" source="nqjFrgvMu1BZjGVMFxI2-55" target="nqjFrgvMu1BZjGVMFxI2-52" edge="1">
          <mxGeometry width="160" relative="1" as="geometry">
            <mxPoint x="749" y="490" as="sourcePoint" />
            <mxPoint x="924" y="490" as="targetPoint" />
          </mxGeometry>
        </mxCell>
        <mxCell id="nqjFrgvMu1BZjGVMFxI2-90" value="" style="endArrow=diamondThin;endFill=1;endSize=24;html=1;rounded=0;exitX=0.5;exitY=0;exitDx=0;exitDy=0;" parent="1" source="nqjFrgvMu1BZjGVMFxI2-76" target="nqjFrgvMu1BZjGVMFxI2-55" edge="1">
          <mxGeometry width="160" relative="1" as="geometry">
            <mxPoint x="432.75" y="689.9999999999998" as="sourcePoint" />
            <mxPoint x="549" y="668.3720930232557" as="targetPoint" />
          </mxGeometry>
        </mxCell>
        <mxCell id="nqjFrgvMu1BZjGVMFxI2-91" value="" style="endArrow=diamondThin;endFill=1;endSize=24;html=1;rounded=0;exitX=0.25;exitY=0;exitDx=0;exitDy=0;" parent="1" source="nqjFrgvMu1BZjGVMFxI2-80" target="nqjFrgvMu1BZjGVMFxI2-55" edge="1">
          <mxGeometry width="160" relative="1" as="geometry">
            <mxPoint x="574" y="779.9999999999998" as="sourcePoint" />
            <mxPoint x="594" y="679.9999999999998" as="targetPoint" />
          </mxGeometry>
        </mxCell>
        <mxCell id="nqjFrgvMu1BZjGVMFxI2-92" value="&lt;div style=&quot;font-family: Consolas, &amp;quot;Courier New&amp;quot;, monospace; font-size: 14px; line-height: 19px;&quot;&gt;&lt;div style=&quot;line-height: 19px;&quot;&gt;&lt;div style=&quot;line-height: 19px;&quot;&gt;&lt;span style=&quot;&quot;&gt;SupersetSelect&lt;/span&gt;&lt;/div&gt;&lt;/div&gt;&lt;/div&gt;" style="rounded=1;whiteSpace=wrap;html=1;fillColor=#0050ef;fontColor=#ffffff;labelBackgroundColor=none;strokeColor=#3333FF;" parent="1" vertex="1">
          <mxGeometry x="165" y="780" width="130" height="40" as="geometry" />
        </mxCell>
        <mxCell id="nqjFrgvMu1BZjGVMFxI2-93" value="Extends" style="endArrow=block;endSize=16;endFill=0;html=1;rounded=0;" parent="1" source="nqjFrgvMu1BZjGVMFxI2-92" target="nqjFrgvMu1BZjGVMFxI2-75" edge="1">
          <mxGeometry width="160" relative="1" as="geometry">
            <mxPoint x="349" y="739.9999999999998" as="sourcePoint" />
            <mxPoint x="439" y="739.9999999999998" as="targetPoint" />
          </mxGeometry>
        </mxCell>
        <mxCell id="V5xZdCs-p3kbeYM9Ju5f-1" value="&lt;div style=&quot;font-family: Consolas, &amp;quot;Courier New&amp;quot;, monospace; font-size: 14px; line-height: 19px;&quot;&gt;&lt;div style=&quot;line-height: 19px;&quot;&gt;&lt;span style=&quot;&quot;&gt;QueryDB&lt;/span&gt;&lt;/div&gt;&lt;/div&gt;" style="rounded=1;whiteSpace=wrap;html=1;fillColor=#0050ef;fontColor=#ffffff;labelBackgroundColor=none;strokeColor=#3333FF;" parent="1" vertex="1">
          <mxGeometry x="39" y="460" width="90" height="40" as="geometry" />
        </mxCell>
        <mxCell id="V5xZdCs-p3kbeYM9Ju5f-2" value="&lt;div style=&quot;font-family: Consolas, &amp;quot;Courier New&amp;quot;, monospace; font-size: 14px; line-height: 19px;&quot;&gt;&lt;div style=&quot;line-height: 19px;&quot;&gt;&lt;span style=&quot;&quot;&gt;QueryDBConfig&lt;/span&gt;&lt;/div&gt;&lt;/div&gt;" style="rounded=1;whiteSpace=wrap;html=1;fillColor=#0050ef;fontColor=#ffffff;labelBackgroundColor=none;strokeColor=#3333FF;" parent="1" vertex="1">
          <mxGeometry x="19" y="380" width="130" height="40" as="geometry" />
        </mxCell>
        <mxCell id="V5xZdCs-p3kbeYM9Ju5f-3" value="&lt;div style=&quot;line-height: 19px;&quot;&gt;&lt;div style=&quot;line-height: 19px;&quot;&gt;&lt;font face=&quot;Consolas, Courier New, monospace&quot;&gt;&lt;span style=&quot;font-size: 14px;&quot;&gt;SqliteFileQueryDB&lt;/span&gt;&lt;/font&gt;&lt;br&gt;&lt;/div&gt;&lt;/div&gt;" style="rounded=1;whiteSpace=wrap;html=1;fillColor=#0050ef;fontColor=#ffffff;labelBackgroundColor=none;strokeColor=#3333FF;" parent="1" vertex="1">
          <mxGeometry x="4" y="565" width="160" height="40" as="geometry" />
        </mxCell>
        <mxCell id="V5xZdCs-p3kbeYM9Ju5f-4" value="&lt;div style=&quot;line-height: 19px;&quot;&gt;&lt;div style=&quot;line-height: 19px;&quot;&gt;&lt;font face=&quot;Consolas, Courier New, monospace&quot;&gt;&lt;span style=&quot;font-size: 14px;&quot;&gt;SqliteMemQueryDB&lt;/span&gt;&lt;/font&gt;&lt;br&gt;&lt;/div&gt;&lt;/div&gt;" style="rounded=1;whiteSpace=wrap;html=1;fillColor=#0050ef;fontColor=#ffffff;labelBackgroundColor=none;strokeColor=#3333FF;" parent="1" vertex="1">
          <mxGeometry x="4" y="660" width="160" height="40" as="geometry" />
        </mxCell>
        <mxCell id="V5xZdCs-p3kbeYM9Ju5f-5" value="Extends" style="endArrow=block;endSize=16;endFill=0;html=1;rounded=0;exitX=0.5;exitY=0;exitDx=0;exitDy=0;entryX=0.5;entryY=1;entryDx=0;entryDy=0;" parent="1" source="V5xZdCs-p3kbeYM9Ju5f-3" target="V5xZdCs-p3kbeYM9Ju5f-1" edge="1">
          <mxGeometry width="160" relative="1" as="geometry">
            <mxPoint x="-11" y="630" as="sourcePoint" />
            <mxPoint x="69" y="630" as="targetPoint" />
          </mxGeometry>
        </mxCell>
        <mxCell id="V5xZdCs-p3kbeYM9Ju5f-6" value="Extends" style="endArrow=block;endSize=16;endFill=0;html=1;rounded=0;exitX=0.5;exitY=0;exitDx=0;exitDy=0;entryX=0.5;entryY=1;entryDx=0;entryDy=0;" parent="1" source="V5xZdCs-p3kbeYM9Ju5f-4" target="V5xZdCs-p3kbeYM9Ju5f-3" edge="1">
          <mxGeometry width="160" relative="1" as="geometry">
            <mxPoint x="-1" y="650" as="sourcePoint" />
            <mxPoint x="99" y="570" as="targetPoint" />
          </mxGeometry>
        </mxCell>
        <mxCell id="V5xZdCs-p3kbeYM9Ju5f-7" value="" style="endArrow=open;endFill=1;endSize=12;html=1;rounded=0;entryX=0;entryY=0.5;entryDx=0;entryDy=0;exitX=1;exitY=0.5;exitDx=0;exitDy=0;" parent="1" source="V5xZdCs-p3kbeYM9Ju5f-1" target="nqjFrgvMu1BZjGVMFxI2-11" edge="1">
          <mxGeometry width="160" relative="1" as="geometry">
            <mxPoint x="99" y="520" as="sourcePoint" />
            <mxPoint x="704" y="510" as="targetPoint" />
          </mxGeometry>
        </mxCell>
        <mxCell id="V5xZdCs-p3kbeYM9Ju5f-8" value="" style="endArrow=open;endFill=1;endSize=12;html=1;rounded=0;exitX=0.5;exitY=1;exitDx=0;exitDy=0;" parent="1" source="V5xZdCs-p3kbeYM9Ju5f-2" target="V5xZdCs-p3kbeYM9Ju5f-1" edge="1">
          <mxGeometry width="160" relative="1" as="geometry">
            <mxPoint x="104" y="530" as="sourcePoint" />
            <mxPoint x="259" y="490" as="targetPoint" />
          </mxGeometry>
        </mxCell>
        <mxCell id="zObcyGWOS3_fX2TqZRa5-1" value="&lt;div style=&quot;font-family: Consolas, &amp;quot;Courier New&amp;quot;, monospace; font-size: 14px; line-height: 19px;&quot;&gt;&lt;div style=&quot;line-height: 19px;&quot;&gt;&lt;div style=&quot;line-height: 19px;&quot;&gt;&lt;div style=&quot;line-height: 19px;&quot;&gt;&lt;div style=&quot;line-height: 19px;&quot;&gt;&lt;div style=&quot;line-height: 19px;&quot;&gt;&lt;font&gt;DmlStatementDictExecutor&lt;/font&gt;&lt;/div&gt;&lt;/div&gt;&lt;/div&gt;&lt;/div&gt;&lt;/div&gt;&lt;/div&gt;" style="rounded=1;whiteSpace=wrap;html=1;fillColor=#CC6600;fontColor=#FFFFFF;labelBackgroundColor=none;" parent="1" vertex="1">
          <mxGeometry x="859" y="860" width="210" height="40" as="geometry" />
        </mxCell>
        <mxCell id="zObcyGWOS3_fX2TqZRa5-3" value="&lt;div style=&quot;font-family: Consolas, &amp;quot;Courier New&amp;quot;, monospace; font-size: 14px; line-height: 19px;&quot;&gt;&lt;div style=&quot;line-height: 19px;&quot;&gt;&lt;div style=&quot;line-height: 19px;&quot;&gt;&lt;font&gt;DictCursor&lt;/font&gt;&lt;/div&gt;&lt;/div&gt;&lt;/div&gt;" style="rounded=1;whiteSpace=wrap;html=1;fillColor=#CC6600;fontColor=#FFFFFF;labelBackgroundColor=none;" parent="1" vertex="1">
          <mxGeometry x="1166.5" y="240" width="115" height="30" as="geometry" />
        </mxCell>
        <mxCell id="zObcyGWOS3_fX2TqZRa5-4" value="&lt;div style=&quot;font-family: Consolas, &amp;quot;Courier New&amp;quot;, monospace; font-size: 14px; line-height: 19px;&quot;&gt;&lt;div style=&quot;line-height: 19px;&quot;&gt;&lt;div style=&quot;line-height: 19px;&quot;&gt;&lt;font&gt;DynamoDBDictResultSet&lt;/font&gt;&lt;/div&gt;&lt;/div&gt;&lt;/div&gt;" style="rounded=1;whiteSpace=wrap;html=1;fillColor=#CC6600;fontColor=#FFFFFF;labelBackgroundColor=none;" parent="1" vertex="1">
          <mxGeometry x="1134" y="310" width="180" height="40" as="geometry" />
        </mxCell>
        <mxCell id="zObcyGWOS3_fX2TqZRa5-5" value="Extends" style="endArrow=block;endSize=16;endFill=0;html=1;rounded=0;entryX=1;entryY=0.5;entryDx=0;entryDy=0;exitX=0;exitY=0.75;exitDx=0;exitDy=0;" parent="1" source="zObcyGWOS3_fX2TqZRa5-4" edge="1">
          <mxGeometry width="160" relative="1" as="geometry">
            <mxPoint x="1139" y="350" as="sourcePoint" />
            <mxPoint x="1049" y="389.5" as="targetPoint" />
          </mxGeometry>
        </mxCell>
        <mxCell id="zObcyGWOS3_fX2TqZRa5-7" value="Extends" style="endArrow=block;endSize=16;endFill=0;html=1;rounded=0;exitX=0;exitY=0.5;exitDx=0;exitDy=0;" parent="1" source="zObcyGWOS3_fX2TqZRa5-3" edge="1">
          <mxGeometry width="160" relative="1" as="geometry">
            <mxPoint x="1139" y="315" as="sourcePoint" />
            <mxPoint x="1039" y="315" as="targetPoint" />
          </mxGeometry>
        </mxCell>
        <mxCell id="zObcyGWOS3_fX2TqZRa5-9" value="" style="endArrow=classic;html=1;rounded=0;exitX=0.5;exitY=1;exitDx=0;exitDy=0;dashed=1;entryX=0.5;entryY=0;entryDx=0;entryDy=0;" parent="1" source="zObcyGWOS3_fX2TqZRa5-3" target="zObcyGWOS3_fX2TqZRa5-4" edge="1">
          <mxGeometry width="50" height="50" relative="1" as="geometry">
            <mxPoint x="989" y="250" as="sourcePoint" />
            <mxPoint x="989" y="290" as="targetPoint" />
          </mxGeometry>
        </mxCell>
        <mxCell id="zObcyGWOS3_fX2TqZRa5-10" value="" style="endArrow=classic;html=1;rounded=0;exitX=0.5;exitY=1;exitDx=0;exitDy=0;dashed=1;" parent="1" source="zObcyGWOS3_fX2TqZRa5-4" target="nqjFrgvMu1BZjGVMFxI2-14" edge="1">
          <mxGeometry width="50" height="50" relative="1" as="geometry">
            <mxPoint x="989" y="420" as="sourcePoint" />
            <mxPoint x="989" y="470" as="targetPoint" />
          </mxGeometry>
        </mxCell>
        <mxCell id="245s7x2I14NmJ-UEmQaI-1" value="&lt;div style=&quot;font-family: Consolas, &amp;quot;Courier New&amp;quot;, monospace; font-size: 14px; line-height: 19px;&quot;&gt;&lt;div style=&quot;line-height: 19px;&quot;&gt;&lt;div style=&quot;line-height: 19px;&quot;&gt;&lt;div style=&quot;line-height: 19px;&quot;&gt;&lt;div style=&quot;line-height: 19px;&quot;&gt;&lt;span style=&quot;&quot;&gt;DdlAlterExecutor&lt;/span&gt;&lt;/div&gt;&lt;/div&gt;&lt;/div&gt;&lt;/div&gt;&lt;/div&gt;" style="rounded=1;whiteSpace=wrap;html=1;fillColor=#CC6600;fontColor=#FFFFFF;labelBackgroundColor=none;" parent="1" vertex="1">
          <mxGeometry x="1009" y="780" width="190" height="40" as="geometry" />
        </mxCell>
        <mxCell id="245s7x2I14NmJ-UEmQaI-2" value="&lt;div style=&quot;font-family: Consolas, &amp;quot;Courier New&amp;quot;, monospace; font-size: 14px; line-height: 19px;&quot;&gt;&lt;div style=&quot;line-height: 19px;&quot;&gt;&lt;div style=&quot;line-height: 19px;&quot;&gt;&lt;div style=&quot;line-height: 19px;&quot;&gt;&lt;div style=&quot;line-height: 19px;&quot;&gt;&lt;span style=&quot;&quot;&gt;DdlDropExecutor&lt;/span&gt;&lt;/div&gt;&lt;/div&gt;&lt;/div&gt;&lt;/div&gt;&lt;/div&gt;" style="rounded=1;whiteSpace=wrap;html=1;fillColor=#CC6600;fontColor=#FFFFFF;labelBackgroundColor=none;" parent="1" vertex="1">
          <mxGeometry x="1219" y="780" width="190" height="40" as="geometry" />
        </mxCell>
        <mxCell id="245s7x2I14NmJ-UEmQaI-3" value="&lt;div style=&quot;font-family: Consolas, &amp;quot;Courier New&amp;quot;, monospace; font-size: 14px; line-height: 19px;&quot;&gt;&lt;div style=&quot;line-height: 19px;&quot;&gt;&lt;div style=&quot;line-height: 19px;&quot;&gt;&lt;div style=&quot;line-height: 19px;&quot;&gt;&lt;div style=&quot;line-height: 19px;&quot;&gt;&lt;span style=&quot;&quot;&gt;DdlCreateGlobalExecutor&lt;/span&gt;&lt;/div&gt;&lt;/div&gt;&lt;/div&gt;&lt;/div&gt;&lt;/div&gt;" style="rounded=1;whiteSpace=wrap;html=1;fillColor=#CC6600;fontColor=#FFFFFF;labelBackgroundColor=none;" parent="1" vertex="1">
          <mxGeometry x="1299" y="720" width="190" height="40" as="geometry" />
        </mxCell>
        <mxCell id="245s7x2I14NmJ-UEmQaI-4" value="&lt;div style=&quot;font-family: Consolas, &amp;quot;Courier New&amp;quot;, monospace; font-size: 14px; line-height: 19px;&quot;&gt;&lt;div style=&quot;line-height: 19px;&quot;&gt;&lt;div style=&quot;line-height: 19px;&quot;&gt;&lt;div style=&quot;line-height: 19px;&quot;&gt;&lt;div style=&quot;line-height: 19px;&quot;&gt;&lt;span style=&quot;&quot;&gt;DdlDropGlobalExecutor&lt;/span&gt;&lt;/div&gt;&lt;/div&gt;&lt;/div&gt;&lt;/div&gt;&lt;/div&gt;" style="rounded=1;whiteSpace=wrap;html=1;fillColor=#CC6600;fontColor=#FFFFFF;labelBackgroundColor=none;" parent="1" vertex="1">
          <mxGeometry x="1299" y="660" width="190" height="40" as="geometry" />
        </mxCell>
        <mxCell id="245s7x2I14NmJ-UEmQaI-5" value="Extends" style="endArrow=block;endSize=16;endFill=0;html=1;rounded=0;exitX=0;exitY=0.5;exitDx=0;exitDy=0;entryX=1;entryY=0.5;entryDx=0;entryDy=0;" parent="1" source="245s7x2I14NmJ-UEmQaI-4" target="nqjFrgvMu1BZjGVMFxI2-19" edge="1">
          <mxGeometry width="160" relative="1" as="geometry">
            <mxPoint x="1254" y="660" as="sourcePoint" />
            <mxPoint x="1339" y="570" as="targetPoint" />
          </mxGeometry>
        </mxCell>
        <mxCell id="245s7x2I14NmJ-UEmQaI-6" value="Extends" style="endArrow=block;endSize=16;endFill=0;html=1;rounded=0;entryX=1;entryY=0.5;entryDx=0;entryDy=0;exitX=0;exitY=0.25;exitDx=0;exitDy=0;" parent="1" source="245s7x2I14NmJ-UEmQaI-3" target="nqjFrgvMu1BZjGVMFxI2-19" edge="1">
          <mxGeometry width="160" relative="1" as="geometry">
            <mxPoint x="1254" y="660" as="sourcePoint" />
            <mxPoint x="1254" y="600" as="targetPoint" />
          </mxGeometry>
        </mxCell>
        <mxCell id="245s7x2I14NmJ-UEmQaI-7" value="Extends" style="endArrow=block;endSize=16;endFill=0;html=1;rounded=0;entryX=0.5;entryY=1;entryDx=0;entryDy=0;exitX=0.5;exitY=0;exitDx=0;exitDy=0;" parent="1" source="245s7x2I14NmJ-UEmQaI-1" target="nqjFrgvMu1BZjGVMFxI2-19" edge="1">
          <mxGeometry width="160" relative="1" as="geometry">
            <mxPoint x="1449" y="640" as="sourcePoint" />
            <mxPoint x="1349" y="600" as="targetPoint" />
          </mxGeometry>
        </mxCell>
        <mxCell id="245s7x2I14NmJ-UEmQaI-8" value="Extends" style="endArrow=block;endSize=16;endFill=0;html=1;rounded=0;entryX=0.75;entryY=1;entryDx=0;entryDy=0;exitX=0.5;exitY=0;exitDx=0;exitDy=0;" parent="1" source="245s7x2I14NmJ-UEmQaI-2" target="nqjFrgvMu1BZjGVMFxI2-19" edge="1">
          <mxGeometry width="160" relative="1" as="geometry">
            <mxPoint x="1249" y="730" as="sourcePoint" />
            <mxPoint x="1254" y="600" as="targetPoint" />
          </mxGeometry>
        </mxCell>
        <mxCell id="245s7x2I14NmJ-UEmQaI-9" value="&lt;div style=&quot;line-height: 19px;&quot;&gt;&lt;div style=&quot;line-height: 19px;&quot;&gt;&lt;div style=&quot;line-height: 19px;&quot;&gt;&lt;div style=&quot;line-height: 19px;&quot;&gt;&lt;div style=&quot;line-height: 19px;&quot;&gt;&lt;div style=&quot;line-height: 19px;&quot;&gt;&lt;font face=&quot;Consolas, Courier New, monospace&quot;&gt;&lt;span style=&quot;font-size: 14px;&quot;&gt;UtilListGlobalTablesExecutor&lt;/span&gt;&lt;/font&gt;&lt;br&gt;&lt;/div&gt;&lt;/div&gt;&lt;/div&gt;&lt;/div&gt;&lt;/div&gt;&lt;/div&gt;" style="rounded=1;whiteSpace=wrap;html=1;fillColor=#CC6600;fontColor=#FFFFFF;labelBackgroundColor=none;" parent="1" vertex="1">
          <mxGeometry x="1169" y="444" width="230" height="40" as="geometry" />
        </mxCell>
        <mxCell id="245s7x2I14NmJ-UEmQaI-10" value="&lt;div style=&quot;line-height: 19px;&quot;&gt;&lt;div style=&quot;line-height: 19px;&quot;&gt;&lt;div style=&quot;line-height: 19px;&quot;&gt;&lt;div style=&quot;line-height: 19px;&quot;&gt;&lt;div style=&quot;line-height: 19px;&quot;&gt;&lt;div style=&quot;line-height: 19px;&quot;&gt;&lt;font face=&quot;Consolas, Courier New, monospace&quot;&gt;&lt;span style=&quot;font-size: 14px;&quot;&gt;UtilDescTableExecutor&lt;/span&gt;&lt;/font&gt;&lt;br&gt;&lt;/div&gt;&lt;/div&gt;&lt;/div&gt;&lt;/div&gt;&lt;/div&gt;&lt;/div&gt;" style="rounded=1;whiteSpace=wrap;html=1;fillColor=#CC6600;fontColor=#FFFFFF;labelBackgroundColor=none;" parent="1" vertex="1">
          <mxGeometry x="1169" y="490" width="230" height="40" as="geometry" />
        </mxCell>
        <mxCell id="245s7x2I14NmJ-UEmQaI-11" value="&lt;div style=&quot;line-height: 19px;&quot;&gt;&lt;div style=&quot;line-height: 19px;&quot;&gt;&lt;div style=&quot;line-height: 19px;&quot;&gt;&lt;div style=&quot;line-height: 19px;&quot;&gt;&lt;div style=&quot;line-height: 19px;&quot;&gt;&lt;div style=&quot;line-height: 19px;&quot;&gt;&lt;font face=&quot;Consolas, Courier New, monospace&quot;&gt;&lt;span style=&quot;font-size: 14px;&quot;&gt;UtilDescGlobalTableExecutor&lt;/span&gt;&lt;/font&gt;&lt;br&gt;&lt;/div&gt;&lt;/div&gt;&lt;/div&gt;&lt;/div&gt;&lt;/div&gt;&lt;/div&gt;" style="rounded=1;whiteSpace=wrap;html=1;fillColor=#CC6600;fontColor=#FFFFFF;labelBackgroundColor=none;" parent="1" vertex="1">
          <mxGeometry x="1169" y="537" width="230" height="40" as="geometry" />
        </mxCell>
        <mxCell id="245s7x2I14NmJ-UEmQaI-12" value="Extends" style="endArrow=block;endSize=16;endFill=0;html=1;rounded=0;exitX=0;exitY=0.5;exitDx=0;exitDy=0;entryX=1;entryY=0.5;entryDx=0;entryDy=0;" parent="1" source="245s7x2I14NmJ-UEmQaI-9" target="nqjFrgvMu1BZjGVMFxI2-14" edge="1">
          <mxGeometry width="160" relative="1" as="geometry">
            <mxPoint x="1179" y="427" as="sourcePoint" />
            <mxPoint x="1054" y="490" as="targetPoint" />
          </mxGeometry>
        </mxCell>
        <mxCell id="245s7x2I14NmJ-UEmQaI-13" value="Extends" style="endArrow=block;endSize=16;endFill=0;html=1;rounded=0;exitX=0;exitY=0.5;exitDx=0;exitDy=0;entryX=1;entryY=0.5;entryDx=0;entryDy=0;" parent="1" source="245s7x2I14NmJ-UEmQaI-10" target="nqjFrgvMu1BZjGVMFxI2-14" edge="1">
          <mxGeometry width="160" relative="1" as="geometry">
            <mxPoint x="1189" y="437" as="sourcePoint" />
            <mxPoint x="1049" y="480" as="targetPoint" />
          </mxGeometry>
        </mxCell>
        <mxCell id="245s7x2I14NmJ-UEmQaI-14" value="Extends" style="endArrow=block;endSize=16;endFill=0;html=1;rounded=0;exitX=0;exitY=0.5;exitDx=0;exitDy=0;entryX=1;entryY=0.5;entryDx=0;entryDy=0;" parent="1" source="245s7x2I14NmJ-UEmQaI-11" target="nqjFrgvMu1BZjGVMFxI2-14" edge="1">
          <mxGeometry width="160" relative="1" as="geometry">
            <mxPoint x="1199" y="447" as="sourcePoint" />
            <mxPoint x="1074" y="510" as="targetPoint" />
          </mxGeometry>
        </mxCell>
        <mxCell id="nqjFrgvMu1BZjGVMFxI2-72" value="Response Aggerated Dataset to Superset" style="text;html=1;strokeColor=none;fillColor=none;align=center;verticalAlign=middle;whiteSpace=wrap;rounded=0;fontStyle=1" parent="1" vertex="1">
          <mxGeometry x="313" y="535" width="136" height="30" as="geometry" />
        </mxCell>
        <mxCell id="nqjFrgvMu1BZjGVMFxI2-69" value="Data from DDB write into Query DB" style="text;html=1;strokeColor=none;fillColor=none;align=center;verticalAlign=middle;whiteSpace=wrap;rounded=0;fontStyle=1" parent="1" vertex="1">
          <mxGeometry x="139" y="530" width="120" height="30" as="geometry" />
        </mxCell>
        <mxCell id="245s7x2I14NmJ-UEmQaI-16" value="&lt;div style=&quot;line-height: 19px;&quot;&gt;&lt;div style=&quot;line-height: 19px;&quot;&gt;&lt;font face=&quot;Consolas, Courier New, monospace&quot;&gt;&lt;span style=&quot;font-size: 14px;&quot;&gt;UtilListTables&lt;/span&gt;&lt;/font&gt;&lt;br&gt;&lt;/div&gt;&lt;/div&gt;" style="rounded=1;whiteSpace=wrap;html=1;fillColor=#CC6600;fontColor=#FFFFFF;labelBackgroundColor=none;" parent="1" vertex="1">
          <mxGeometry x="609" y="860" width="130" height="40" as="geometry" />
        </mxCell>
        <mxCell id="245s7x2I14NmJ-UEmQaI-17" value="&lt;div style=&quot;line-height: 19px;&quot;&gt;&lt;div style=&quot;line-height: 19px;&quot;&gt;&lt;font face=&quot;Consolas, Courier New, monospace&quot;&gt;&lt;span style=&quot;font-size: 14px;&quot;&gt;UtilDescTable&lt;/span&gt;&lt;/font&gt;&lt;br&gt;&lt;/div&gt;&lt;/div&gt;" style="rounded=1;whiteSpace=wrap;html=1;fillColor=#CC6600;fontColor=#FFFFFF;labelBackgroundColor=none;" parent="1" vertex="1">
          <mxGeometry x="519" y="780" width="130" height="40" as="geometry" />
        </mxCell>
        <mxCell id="245s7x2I14NmJ-UEmQaI-18" value="Extends" style="endArrow=block;endSize=16;endFill=0;html=1;rounded=0;exitX=0.5;exitY=0;exitDx=0;exitDy=0;entryX=0.5;entryY=1;entryDx=0;entryDy=0;" parent="1" source="245s7x2I14NmJ-UEmQaI-16" target="nqjFrgvMu1BZjGVMFxI2-80" edge="1">
          <mxGeometry width="160" relative="1" as="geometry">
            <mxPoint x="524" y="880" as="sourcePoint" />
            <mxPoint x="474" y="830" as="targetPoint" />
          </mxGeometry>
        </mxCell>
        <mxCell id="245s7x2I14NmJ-UEmQaI-19" value="Extends" style="endArrow=block;endSize=16;endFill=0;html=1;rounded=0;exitX=0.5;exitY=0;exitDx=0;exitDy=0;entryX=0.5;entryY=1;entryDx=0;entryDy=0;" parent="1" source="245s7x2I14NmJ-UEmQaI-17" target="nqjFrgvMu1BZjGVMFxI2-80" edge="1">
          <mxGeometry width="160" relative="1" as="geometry">
            <mxPoint x="694" y="870" as="sourcePoint" />
            <mxPoint x="674" y="760" as="targetPoint" />
          </mxGeometry>
        </mxCell>
        <mxCell id="R1DppmZUwIIvcXTJ37_p-1" value="Extends" style="endArrow=block;endSize=16;endFill=0;html=1;rounded=0;entryX=0.75;entryY=1;entryDx=0;entryDy=0;" parent="1" source="zObcyGWOS3_fX2TqZRa5-1" target="nqjFrgvMu1BZjGVMFxI2-16" edge="1">
          <mxGeometry width="160" relative="1" as="geometry">
            <mxPoint x="844" y="660" as="sourcePoint" />
            <mxPoint x="887" y="600" as="targetPoint" />
          </mxGeometry>
        </mxCell>
        <mxCell id="sgEdJDVoM9Bbh11HrbUa-2" value="1" style="text;html=1;align=center;verticalAlign=middle;whiteSpace=wrap;rounded=1;fillColor=#0000CC;fontColor=#FFFFFF;shadow=0;glass=0;" vertex="1" parent="1">
          <mxGeometry x="139" y="272" width="20" height="20" as="geometry" />
        </mxCell>
        <mxCell id="sgEdJDVoM9Bbh11HrbUa-4" value="2" style="text;html=1;align=center;verticalAlign=middle;whiteSpace=wrap;rounded=1;fillColor=#0000CC;fontColor=#FFFFFF;" vertex="1" parent="1">
          <mxGeometry x="119" y="532" width="20" height="20" as="geometry" />
        </mxCell>
        <mxCell id="sgEdJDVoM9Bbh11HrbUa-5" value="3" style="text;html=1;align=center;verticalAlign=middle;whiteSpace=wrap;rounded=1;fillColor=#0000CC;fontColor=#FFFFFF;" vertex="1" parent="1">
          <mxGeometry x="298" y="537" width="20" height="20" as="geometry" />
        </mxCell>
      </root>
    </mxGraphModel>
  </diagram>
</mxfile>
